<?xml version="1.0" encoding="UTF-8"?>
<svg id="Layer_1" xmlns="http://www.w3.org/2000/svg" version="1.1" viewBox="0 0 803.11 328.19">
  <!-- Generator: Adobe Illustrator 30.2.1, SVG Export Plug-In . SVG Version: 2.1.1 Build 1)  -->
  <defs>
    <style>
      .st0 {
        fill: #fff;
      }

      .st1 {
        fill: #977993;
      }
    </style>
  </defs>
  <path class="st0" d="M348.95,211.64c6.1-2.29,16.2-8.08,16.2-21.2s-10.81-20.51-23.39-22.8c-.28-.25-.61-.46-1.06-.55-.94-.14-1.87-.22-2.75-.3-4.36-.38-6.99-.6-6.99-7.19v-82.11c0-4.37,1.98-6.16,6.82-6.16h4.85l-.5-.16h.77c35.26,0,42.67,16.46,42.67,30.28,0,19.1-16.81,31.43-42.83,31.43-1.38,0-1.58-.05-2.02-.16-.34-.08-.8-.19-1.85-.33-1.11-.13-2.05.23-2.57.99-.48.7-.52,1.62-.11,2.4.49.93,1.49,1.47,2.78,1.47h0l4.18-.17c13.94,1.56,34.78-.69,47.6-12.15,6.92-6.19,10.43-14.15,10.43-23.65,0-17.57-14.04-35.31-45.39-35.31h-48.07c-1.12,0-1.98.79-2.09,1.93-.1,1.01.48,2.17,1.82,2.44.95.14,1.87.22,2.75.3,4.36.37,6.99.6,6.99,7.19v81.78c0,6.05-2.22,6.74-5.96,7.1h-27.13c-1.12,0-1.98.79-2.09,1.93-.1,1.01.48,2.17,1.79,2.43,1.05.19,2.07.29,3.03.38,4.2.41,6.73.66,6.73,7.11v81.61c0,6.38-2.58,6.65-6.85,7.11-.93.1-1.91.2-2.86.37-1.29.13-1.91,1.19-1.86,2.18.05,1.01.79,2.02,2.1,2.02h51.54c24.97,0,41.75-12.4,41.75-30.85,0-15.74-10.06-26.08-28.42-29.35h-.01ZM307.16,178.22h.17c0-5.12,2.66-6.17,6.65-6.17h13.05c16.3,0,25.65,6.88,25.65,18.88,0,10.87-10.69,19.71-23.83,19.71h-2.7c-3.79.03-5.88.04-10.58-.49-1.49-.18-2.73.31-3.4,1.34-.63.98-.64,2.29,0,3.33.66,1.08,1.82,1.64,3.23,1.51,4.69-.54,7.08-.52,11.04-.5h2.91c21.54,0,34.41,9.48,34.41,25.33s-14.22,25.49-35.4,25.49h-14.21c-4.84,0-6.82-1.79-6.82-6.16h-.17v-82.26h0Z"/>
  <path class="st0" d="M450.93,268.45c-2.46,0-4.34-.53-4.34-7.15v-45.6c0-14.28-14.69-21.76-29.2-21.76-8.89,0-17.32,2.77-23.1,7.59-.61.46-1.29.96-1.84,1.76-.15.07-.28.19-.46.36-.66.82-1.34,1.67-1.96,2.62-1.13,1.31-1.82,3.13-2.25,4.46l-.5.99-.08.55c-.41,1.26-.83,2.74-.82,4.28.19,6.78,4.01,9.18,7.22,9.18,2.14,0,4.21-1.11,5.39-2.89,1.33-2,1.43-4.59.28-7.3-.96-2.17-3.54-9.54,3.74-13.18,3.47-1.58,7.53-2.41,11.74-2.41,8.78,0,19.04,4.12,19.04,15.74v12.81c-.76.31-3.54.4-6.23.49-1.93.06-4.16.14-6.58.29-26.01,1.36-39.27,9.9-39.4,25.4,0,9.67,8.1,19.45,23.58,19.45,17.03,0,24.99-8.61,28.62-15.5v4.65c0,6.48,4.2,10.19,11.52,10.19,1.9,0,3.92-.29,5.99-.85,1.39-.38,1.9-1.51,1.78-2.4-.14-1.05-1.03-1.78-2.15-1.78h.01ZM433.8,233.68v4.33c-.58,27.89-21.06,29.3-25.15,29.3-7.42,0-12.6-5.11-12.6-12.44,0-18.7,21.31-21.12,37.75-21.19Z"/>
  <path class="st0" d="M488.41,268.3c-1.03-.19-2.03-.29-3-.38-4.22-.42-6.77-.67-6.77-7.11v-105.24c0-.92-.46-1.34-.74-1.51-.6-.37-1.44-.31-2.36.15-4.56,2.21-10.4,4.19-17.9,6.07-1.86.58-2.37,1.77-2.23,2.69.16,1.05,1.13,1.81,2.3,1.81,7.68,0,8.14,0,8.14,7.97v88.05c0,6.45-2.53,6.7-6.73,7.11-.96.09-1.98.19-3.05.38-1.3.26-1.88,1.42-1.78,2.43.11,1.13.97,1.92,2.09,1.92h31.72c1.16,0,2.05-.77,2.15-1.88.1-1-.51-2.21-1.85-2.47h0Z"/>
  <path class="st0" d="M558.81,268.29c-1.9,0-2.85-1.78-2.85-5.33,0-1.82-1.22-2.76-2.43-2.76-1,0-2.19.54-3.03,1.38-.23.23-.82.76-1.53,1.42-4.94,4.5-4.89,4.61-4.55,5.28,1.74,3.33,4.69,4.88,9.28,4.88,2.11,0,3.96-.22,5.66-.69h.02c1.15-.35,1.84-1.34,1.68-2.43-.13-.87-.87-1.75-2.23-1.75h-.02Z"/>
  <path class="st0" d="M652.12,268.3c-1.05-.18-2.06-.28-3.03-.38-4.2-.42-6.73-.66-6.73-7.11v-43.94c0-6.12-2.24-11.5-6.47-15.55-5.45-5.21-13.81-7.96-22.89-7.54-9.26,0-17.35,2.51-24.66,7.67v-5.56c0-.93-.51-1.36-.81-1.53-.76-.44-1.72-.18-2.29.17-5.56,2.7-12.24,4.66-18.02,6.22-1.85.46-2.39,1.59-2.28,2.49.13,1.06,1.12,1.85,2.3,1.85,7.83,0,8.3,0,8.3,8.14v.39c-4.89,6.15-9.17,13-13.32,19.63-2.13,3.41-4.17,6.67-6.26,9.81v-27.52c0-14.29-14.69-21.76-29.2-21.76-8.89,0-17.33,2.77-23.1,7.59-.7.53-1.23,1.05-1.9,1.72l-.39.4c-.66.82-1.34,1.67-1.98,2.64-.53.67-.87,1.41-1.19,2.13-.12.27-.25.55-.34.74-.37.55-.56.94-.75,1.51-.15.43-.29.73-.46,1.06l-.08.55c-.42,1.26-.83,2.74-.83,4.28.19,6.78,4.01,9.18,7.22,9.18,2.21,0,4.24-1.06,5.42-2.85,1.32-1.99,1.41-4.6.25-7.34-1.97-4.43-2.01-10.22,3.74-13.18,3.42-1.55,7.58-2.41,11.74-2.41,8.78,0,19.04,4.12,19.04,15.74v19.45s-.07-.06-.11-.1c-3.51-3.16-10.82-9.72-24.72-9.72-12.02,0-21.61,4.97-26.32,13.62-4.08,7.51-3.77,16.57.81,23.63,4.81,7.42,13.64,11.53,24.49,11.53,1.14,0,2.31-.05,3.5-.14,23.28,0,35.5-19.44,47.31-38.24,11.51-18.31,22.37-35.61,42.58-35.61h.34c5.23,0,10.17,1.92,13.6,5.3,3.11,3.06,4.76,7.07,4.76,11.6v44.27c0,5.98,1.34,11.52,11.02,11.52h11.4c1.31,0,2.05-1.06,2.1-2.1.06-1.2-.72-2.15-1.8-2.26h0ZM543.16,243.54v14.93c-6.91,5.91-14.02,8.66-22.35,8.66-11.97,0-18.24-8.44-18.24-16.78,0-4.51,1.78-8.69,5.01-11.77,3.72-3.54,9.15-5.41,15.7-5.41,7.86,0,15.45,3.97,19.87,10.36h0Z"/>
  <path class="st0" d="M598.1,268.3c-1.05-.18-2.06-.28-3.03-.38-4.2-.42-6.73-.66-6.73-7.11v-40.14c0-3.25-1.6-4.41-3.09-4.41-1.2,0-2.36.68-3.59,2.12-2.16,2.82-4.18,5.85-6,9l-.11.18v33.25c0,6.44-2.55,6.69-6.77,7.11-.96.09-1.97.2-2.94.37-1.15.11-1.98,1.11-1.92,2.31.06,1.21.95,2.05,2.16,2.05h31.72c1.31,0,2.05-1.06,2.1-2.1.06-1.2-.72-2.15-1.8-2.26h0Z"/>
  <path class="st0" d="M723.52,253.09c-1.24,0-2.42.76-3.15,2.03-4.44,7.45-12.99,11.82-23.47,12.01-7.15.15-13.72-2.31-18.49-6.98-5.97-5.83-9.12-14.97-9.12-26.44,0-20.92,10.08-33.42,26.97-33.42,3.66,0,7.48.94,11.05,2.73l.05-.1-.02.17c.67.13,1.2.39,1.58.77l.23.23h.16s.11.1.22.2c4.19,2.79,4.38,7.85,3.16,11.67-.81,2.6-.53,5.03.79,6.83,1.2,1.64,3.16,2.61,5.24,2.61,1.82,0,3.51-.74,4.75-2.08,1.16-1.26,2.48-3.64,2.14-7.86-.18-1.8-1.04-4.03-2.43-6.28l-.23-.37h-.12s-.01-.02-.02-.02c-.47-.63-.96-1.28-1.44-2.08l-.14-.19c-.05-.08-.17-.28-.4-.4l-.74-.89-.23-.2c-.25-.38-1.02-1.08-2.16-2.1-.4-.36-.75-.67-.92-.84-.05-.05-.1-.09-.14-.14l-.12-.57h-.51c-6.11-4.87-13.79-7.43-22.25-7.43-11.14,0-20.75,3.77-27.79,10.91-7.15,7.25-10.99,17.62-10.83,29.2.34,29.07,20.34,39.43,38.94,39.43,13.95,0,26.71-6.2,31.73-15.42.69-1.17.73-2.45.13-3.5-.52-.91-1.46-1.48-2.46-1.48h.04Z"/>
  <path class="st0" d="M803.11,228.6c0-20.72-14.26-34.65-35.47-34.65-10.58,0-19.61,3.5-26.14,10.11-7.15,7.26-10.84,17.63-10.66,30,.34,29.07,20.42,39.43,39.11,39.43,13.57,0,25.64-6.06,30.75-15.42.68-1.18.73-2.45.12-3.5-.52-.91-1.46-1.48-2.45-1.48-1.25,0-2.42.77-3.15,2.03-5.78,9.7-15.5,11.89-22.64,12.01-7.13.17-13.61-2.29-18.37-6.9-5.83-5.66-9.02-14.49-9.24-25.57h51.91c3.79,0,6.23-2.38,6.23-6.07h0ZM745.33,228.48c.89-12.75,5.77-27.62,23.62-28.17,14.9,0,21.69,10.73,21.69,20.7,0,5.24-2.38,7.48-7.97,7.48h-37.34Z"/>
  <path class="st0" d="M450.11,99.74c3.36,0,7.85,1.21,10.18,6.94,1.78,4.45,4.74,5.12,6.34,5.12,2.82,0,5.5-1.98,6.39-4.7.5-1.53,1.08-5.53-4.29-9.44-4.52-3.23-9.82-4.94-15.32-4.94-9.36,0-18.13,4.7-23.5,12.44v-10.5c0-.72-.32-1.31-.88-1.63-.64-.37-1.54-.32-2.22.09-5.56,2.62-12.24,4.62-18.03,6.23-1.86.46-2.39,1.68-2.28,2.58.13,1.1,1.13,1.93,2.3,1.93h.42c3.46.02,5.59,0,6.55.89.98.91,1.17,3.2,1.17,7.09v47.58c0,6.45-2.53,6.7-6.73,7.11-.97.09-1.99.2-3.07.39-1.25.28-1.8,1.49-1.69,2.5.12,1.11.93,1.85,2.03,1.85h31.88c1.09,0,1.91-.74,2.03-1.85.11-1.01-.45-2.23-1.73-2.51-1.05-.19-2.07-.29-3.03-.38-4.2-.41-6.73-.66-6.73-7.11v-38.82c0-11.94,10.66-20.86,20.2-20.86h.01Z"/>
  <path class="st0" d="M516.69,92.73c-12.02,0-22.13,4.34-29.21,12.56-6.27,7.27-9.73,17.05-9.73,27.54,0,27.55,20.19,40.1,38.94,40.1,12.06,0,22.19-4.34,29.3-12.56,6.29-7.27,9.76-17.05,9.76-27.54,0-27.55-20.25-40.1-39.07-40.1h.01ZM516.69,168.06c-17.21,0-25.05-18.3-25.05-35.3,0-9.28,2.25-17.91,6.33-24.3,4.54-7.11,11.02-10.87,18.72-10.87s14.18,3.76,18.72,10.87c4.08,6.39,6.33,15.02,6.33,24.3,0,17-7.84,35.3-25.05,35.3Z"/>
  <path class="st0" d="M571.4,105.29c-6.27,7.27-9.73,17.05-9.73,27.54,0,27.55,20.19,40.1,38.94,40.1,12.06,0,22.19-4.34,29.3-12.56,6.29-7.27,9.76-17.05,9.76-27.54,0-27.55-20.25-40.1-39.07-40.1-12.02,0-22.13,4.34-29.21,12.56h.01ZM619.33,108.47c4.08,6.39,6.33,15.02,6.33,24.3,0,17-7.84,35.3-25.05,35.3s-25.05-18.3-25.05-35.3c0-9.28,2.25-17.91,6.33-24.3,4.54-7.11,11.02-10.87,18.72-10.87s14.18,3.76,18.72,10.87Z"/>
  <path class="st0" d="M685.81,56.22h-.78c-.21,0-.64,0-.97-.14-.69-.17-1.41-.32-2.2-.34-8.3-1.46-16.52.43-22,5.03-4.9,4.12-7.49,10.24-7.49,17.71v15.24h-8.63c-1.98,0-3.01,1.31-3.01,2.6s1.04,2.6,3.01,2.6h8.63v60.68c0,6.43-2.55,6.69-6.77,7.11-.96.1-1.97.2-2.94.38-1.15.11-1.98,1.11-1.92,2.31.06,1.21.95,2.05,2.16,2.05h31.72c1.31,0,2.05-1.06,2.1-2.1.06-1.2-.72-2.15-1.8-2.25-1.05-.19-2.07-.29-3.03-.38-4.2-.42-6.73-.66-6.73-7.11v-60.68h18.38c1.9,0,2.89-1.31,2.89-2.6s-.99-2.6-2.89-2.6h-18.38v-15.24c0-10.33,5.06-17.76,12.25-18.05,6.6.19,8.73,5.89,9.34,8.33.99,3.97,4.06,5.38,6.38,5.38,2.04,0,3.87-1.06,4.8-2.76.65-1.2,1.37-3.74-1.01-7.37-1.98-2.97-6.49-5.97-11.1-7.42v-.38h0Z"/>
  <path class="st0" d="M719.5,130.87c-16.33,5.63-22.69,19.65-20.42,31.27,3.34,17.15,21.02,24.19,39.66,24.19,3.3,0,6.63-.22,9.92-.64,33.24-4.4,44.59-22.44,44.2-36.56-.34-12.42-8.99-21.96-21.33-23.92,11.67-6.79,23.28-15.4,22.49-30.06-.29-4.31-2-6.55-3.38-7.67-1.5-1.21-3.34-1.74-5.23-1.46-2.06.3-3.82,1.52-4.7,3.29-1.06,2.11-.82,4.78.68,7.53,6.12,11.14-5.74,18.37-18.31,26.03-6.72,4.1-13.67,8.33-17.82,13.29-.28.23-.48.55-.68.86-.02.04-.04.07-.07.11l-.33.27c-4.5,5.72-6.05,15.41-3.26,20.32,1.07,1.88,3.26,4.02,7.56,3.45,1.71-.24,3.16-1.15,4.1-2.54.99-1.46,1.35-3.37,1.04-5.5-.36-2.5-2.16-4.39-3.74-6.06-2.54-2.68-3.88-4.32-1.96-7,1.77-1.78,3.83-3.35,6.31-4.82l.35-.24c2.68-1.86,5.56-3.05,8.33-3.45,4.11-.59,7.82.36,10.7,2.76,3.82,3.19,5.99,8.82,6.28,16.29.73,16.57-15.71,26.24-32.33,28.48-13.24,1.77-23.91-1.69-30.06-9.71-5.19-6.78-6.4-16.31-3.08-24.27,3.18-7.63,9.95-12.64,18.58-13.75,1.01-.15,1.81-.74,2.16-1.6.27-.69.18-1.42-.24-1.96-.3-.38-1-.96-2.53-.76-11.63,1.54-20.08-5.79-22-19.08-2.17-15.08,8.73-23.66,19.78-25.26,6.2-.89,11.82.45,15.04,3.58,2.39,2.33,3.37,5.48,2.92,9.37-.31,2.81.34,5.15,1.83,6.59,1.13,1.09,2.68,1.59,4.25,1.37,2.74-.4,5.37-3.01,4.67-7.81-2.12-14.77-17.93-19.55-31.71-17.76-20.54,2.69-29.36,16.46-29,28.93.3,10.28,7.04,21.1,21.32,23.91h.01Z"/>
  <path class="st0" d="M103.25,218.19c12.25-3.28,27.33-9.17,35.73-19.18.07,0,3.59-4.57,5.62-10.6,2.96-8.79-2.17-13.73-6.73-14.49-5.02-.84-10.35,2.97-8.71,11.45,2.21,11.21-3.42,15.94-14.07,21.62l-51.3,23.37c-10.25,5.9-11.22,31.55,3.81,31.78,4.16,0,7.64-3.24,7.64-9.02,0-7.87-11.8-12.96-4.86-20.13,2.78-2.08,6.02-3.93,9.95-5.55.23-.23.46-.23.46-.23,4.17-2.08,8.56-3.24,12.73-3.24,12.26,0,23.14,9.02,20.82,31-2.31,23.37-27.07,34.24-51.59,34.01-61.77-.69-54.83-71.95-10.64-71.26,3.01,0,3.93-3.93,0-3.93-17.81-.23-27.76-13.65-27.76-31.93,0-22.44,17.81-32.16,33.55-32.16,14.58,0,27.3,8.1,23.37,22.9-1.85,7.17,1.85,10.87,5.78,10.87,3.47,0,6.94-2.78,6.94-8.79,0-13.73-9.46-22.23-20.94-26.49h0c-17.04-6.48-33.33-1.72-33.33-1.72h.06c-39.45,9.8-41.07,60.69.07,69.62l-1.85-.23c-52.98,6.02-55.76,79.13,24.99,80.28,80.51.93,82.83-68.48,40.26-77.97v.02h0Z"/>
  <path class="st0" d="M200.54,210.56c9.49-8.33,14.63-20.48,14.63-35.93,0-31.23-26.17-47.3-55.19-47.3h-68.54c-1.81,0-1.99,2.73-.18,3.09,6.15,1.09,10.32-.55,10.32,9.1l.07,23.3h0l.06,39.12,13.38-4.88v-57.62c0-1.59.15-2.87.42-3.92,1.17-3.25,4.11-4.01,7.59-4.01l23.97-.83c52.29.14,50.72,17.68,50.72,44.17,0,13.88-3.75,25.47-12.46,33-11.43-1.11-30.81-2.65-44.84-1.95l-6.44,6.39s22.15.15,38.88,3.07c4.12.93,9.01,2.24,14.15,4.05h0c19.78,6.96,43.05,21.32,38.33,49.89-4.89,29.62-20.3,35.19-81.34,35.43h-3.37c-12.85-.61-28.57-.94-36.58,10-4.23,5.95-2.4,10.67.72,12.55,3.43,2.07,8.43.83,9.69-5.84,2.03-10.97,17.05-11.49,29.54-11.62v.02l41.69.19c31.49,0,59.87-17.04,59.87-50.17,0-28.97-21.41-44-45.1-49.29h0Z"/>
  <path class="st1" d="M161.2,221.71c-1.37-.1-1.51-.06,0,0h0Z"/>
  <path class="st0" d="M125.76,0H34.52c-2.04,0-2.25,3.18-.21,3.61,6.95,1.06,12.88-.64,12.88,10.61v125.23c3.75-.42,8.62-.59,14.04.13,0-3.56.89-115.79,1.09-125.79,0-5.74,2.57-7.93,6.1-8.63l41.4.16c33.12,0,53.76,14.55,53.76,45.58,0,24.3-9.89,42.17-35.39,45-10.48.74-21.2.04-23.76-9.5-1.87-6.86-6.77-7.62-9.85-5.08-2.8,2.31-4.08,7.45.55,13.23,2.97,3.6,10.7,6.99,10.69,7.03.06-.02.13-.04.19-.06,46.67,7.49,74.94-11.97,74.94-50.86C180.95,17.21,154.79,0,125.76,0Z"/>
</svg>