<?xml version="1.0" encoding="UTF-8"?>
<svg id="Layer_1" data-name="Layer 1" xmlns="http://www.w3.org/2000/svg" viewBox="0 0 701.69 928.58">
  <defs>
    <style>
      .cls-1 {
        fill: #fff;
      }

      .cls-2 {
        fill: #977993;
      }
    </style>
  </defs>
  <g>
    <path class="cls-1" d="M90.19,844.41c8.21-3.09,21.81-10.87,21.81-28.55s-14.55-27.61-31.5-30.7c-.38-.34-.83-.62-1.43-.74-1.27-.19-2.51-.29-3.7-.4-5.87-.51-9.42-.81-9.42-9.69v-110.55c0-5.89,2.66-8.29,9.18-8.29h6.53l-.67-.22h1.03c47.48,0,57.45,22.17,57.45,40.77,0,25.71-22.64,42.33-57.67,42.33-1.86,0-2.13-.07-2.72-.21-.46-.11-1.07-.26-2.5-.45-1.5-.17-2.75.31-3.46,1.34-.65.94-.7,2.18-.15,3.23.66,1.26,2.01,1.98,3.74,1.98h0l5.63-.23c18.77,2.1,46.83-.92,64.09-16.36,9.32-8.34,14.05-19.05,14.05-31.85,0-23.66-18.9-47.54-61.11-47.54H34.65c-1.51,0-2.67,1.07-2.82,2.59-.14,1.36.64,2.92,2.44,3.28,1.27.19,2.52.29,3.7.4,5.87.5,9.41.81,9.41,9.68v110.11c0,8.14-2.99,9.07-8.02,9.56H2.84c-1.51,0-2.67,1.07-2.82,2.6-.13,1.36.64,2.92,2.42,3.27,1.41.25,2.78.39,4.08.52,5.65.56,9.06.89,9.06,9.57v109.89c0,8.59-3.47,8.96-9.22,9.57-1.25.13-2.57.27-3.85.5-1.73.17-2.57,1.61-2.51,2.93.07,1.36,1.06,2.73,2.83,2.73h69.4c33.63,0,56.22-16.69,56.22-41.54,0-21.2-13.54-35.11-38.27-39.52ZM33.92,799.42h.22c0-6.9,3.58-8.31,8.96-8.31h17.57c21.95,0,34.54,9.26,34.54,25.42,0,14.63-14.4,26.54-32.09,26.54h-3.64c-5.1.04-7.92.06-14.25-.66-2-.25-3.68.42-4.57,1.8-.85,1.32-.86,3.09,0,4.49.88,1.46,2.45,2.21,4.35,2.03,6.32-.72,9.53-.71,14.87-.68h3.92c29.01.01,46.33,12.76,46.33,34.11s-19.15,34.32-47.66,34.32h-19.13c-6.52,0-9.18-2.4-9.18-8.29h-.22v-110.76Z"/>
    <path class="cls-1" d="M227.5,920.92c-3.31,0-5.84-.71-5.84-9.63v-61.4c0-19.23-19.78-29.3-39.31-29.3-11.97,0-23.33,3.74-31.1,10.22-.82.61-1.73,1.3-2.47,2.36-.2.1-.38.25-.61.49-.88,1.1-1.8,2.25-2.64,3.53-1.51,1.77-2.45,4.21-3.03,6l-.67,1.33-.11.75c-.56,1.69-1.11,3.68-1.11,5.76.25,9.13,5.4,12.36,9.73,12.36,2.89,0,5.67-1.49,7.26-3.89,1.79-2.7,1.92-6.18.38-9.82-1.3-2.92-4.77-12.84,5.04-17.74,4.67-2.12,10.14-3.24,15.8-3.24,11.83,0,25.64,5.55,25.64,21.19v17.25c-1.02.41-4.76.54-8.39.66-2.59.09-5.6.19-8.86.4-35.03,1.82-52.87,13.33-53.05,34.2,0,13.01,10.91,26.18,31.75,26.18,22.93,0,33.64-11.59,38.54-20.87v6.26c0,8.72,5.65,13.73,15.51,13.73,2.56,0,5.28-.39,8.06-1.15,1.88-.51,2.56-2.03,2.4-3.23-.19-1.41-1.38-2.39-2.9-2.39ZM204.43,874.09v5.83c-.78,37.55-28.35,39.45-33.87,39.45-9.99,0-16.96-6.89-16.96-16.75,0-25.17,28.69-28.43,50.83-28.53Z"/>
    <path class="cls-1" d="M277.96,920.71c-1.38-.25-2.74-.39-4.04-.52-5.68-.57-9.11-.91-9.11-9.57v-141.7c0-1.24-.63-1.81-1-2.04-.8-.49-1.94-.42-3.18.2-6.15,2.98-14.01,5.65-24.1,8.17-2.5.78-3.19,2.38-3,3.62.22,1.42,1.52,2.44,3.09,2.44,10.34,0,10.96,0,10.96,10.74v118.56c0,8.68-3.41,9.02-9.06,9.58-1.3.13-2.67.26-4.1.52-1.75.35-2.53,1.91-2.39,3.27.15,1.53,1.31,2.59,2.82,2.59h42.71c1.56,0,2.75-1.04,2.9-2.53.13-1.35-.69-2.97-2.49-3.33Z"/>
    <path class="cls-1" d="M372.76,920.69q-3.84,0-3.84-7.18c0-2.44-1.65-3.72-3.28-3.72-1.34,0-2.94.73-4.08,1.86-.31.31-1.1,1.03-2.06,1.91-6.66,6.06-6.59,6.2-6.13,7.11,2.35,4.48,6.32,6.57,12.5,6.57,2.84,0,5.34-.3,7.62-.93h.02c1.55-.47,2.47-1.81,2.26-3.27-.17-1.17-1.17-2.36-3.01-2.36Z"/>
    <path class="cls-1" d="M498.4,920.71c-1.41-.25-2.78-.38-4.08-.51-5.65-.56-9.06-.89-9.06-9.58v-59.17c0-8.25-3.01-15.48-8.72-20.93-7.34-7.01-18.59-10.72-30.82-10.15-12.47,0-23.36,3.38-33.2,10.33v-7.49c0-1.26-.69-1.83-1.09-2.06-1.03-.59-2.31-.24-3.09.22-7.49,3.63-16.48,6.28-24.27,8.38-2.49.62-3.22,2.15-3.07,3.36.18,1.42,1.51,2.49,3.1,2.49,10.55,0,11.18,0,11.18,10.96v.52c-6.58,8.28-12.35,17.51-17.93,26.43-2.87,4.59-5.61,8.98-8.43,13.21v-37.05c0-19.24-19.78-29.31-39.31-29.31-11.98,0-23.33,3.74-31.11,10.22-.95.71-1.66,1.42-2.56,2.32l-.53.53c-.88,1.1-1.8,2.25-2.67,3.56-.72.9-1.17,1.89-1.6,2.86-.16.36-.33.74-.45.99-.5.74-.76,1.27-1.01,2.03-.2.58-.39.98-.61,1.43l-.11.74c-.56,1.7-1.11,3.69-1.11,5.76.25,9.13,5.4,12.36,9.73,12.36,2.98,0,5.71-1.43,7.3-3.84,1.78-2.69,1.9-6.19.33-9.88-2.65-5.97-2.71-13.76,5.04-17.74,4.6-2.09,10.21-3.24,15.8-3.24,11.83,0,25.64,5.55,25.64,21.19v26.18s-.1-.09-.15-.13c-4.73-4.25-14.56-13.09-33.28-13.09-16.18,0-29.1,6.69-35.44,18.34-5.5,10.11-5.08,22.3,1.09,31.82,6.48,10,18.36,15.52,32.97,15.52,1.54,0,3.11-.06,4.71-.19,31.35,0,47.79-26.17,63.7-51.49,15.49-24.66,30.13-47.95,57.33-47.95.15,0,.31,0,.46,0,7.04,0,13.69,2.59,18.31,7.13,4.19,4.12,6.4,9.53,6.4,15.62v59.61c0,8.06,1.8,15.51,14.84,15.51h15.35c1.77,0,2.76-1.42,2.83-2.83.08-1.61-.97-2.89-2.43-3.04ZM351.68,887.37v20.1c-9.3,7.95-18.87,11.66-30.09,11.66-16.12,0-24.56-11.36-24.56-22.59,0-6.08,2.4-11.7,6.75-15.85,5.01-4.76,12.32-7.29,21.14-7.29,10.59,0,20.81,5.34,26.75,13.95Z"/>
    <path class="cls-1" d="M425.66,920.71c-1.41-.25-2.78-.38-4.08-.51-5.65-.56-9.06-.89-9.06-9.58v-54.05c0-4.38-2.15-5.94-4.17-5.94-1.61,0-3.18.92-4.84,2.86-2.9,3.8-5.62,7.87-8.08,12.12l-.14.25v44.77c0,8.66-3.43,9.01-9.11,9.57-1.3.13-2.65.26-3.95.5-1.55.15-2.67,1.49-2.58,3.11.08,1.63,1.28,2.77,2.91,2.77h42.71c1.77,0,2.76-1.42,2.83-2.83.08-1.61-.97-2.89-2.43-3.04Z"/>
    <path class="cls-1" d="M594.53,900.23c-1.67,0-3.26,1.03-4.24,2.74-5.98,10.03-17.49,15.92-31.6,16.17-9.63.2-18.47-3.11-24.9-9.4-8.04-7.85-12.29-20.16-12.29-35.6,0-28.17,13.58-44.99,36.32-44.99,4.93,0,10.07,1.27,14.88,3.67l.07-.14-.02.23c.9.18,1.61.53,2.13,1.04l.31.31h.22c.06.06.14.14.3.27,5.64,3.76,5.9,10.58,4.25,15.71-1.1,3.51-.72,6.77,1.07,9.2,1.62,2.2,4.26,3.52,7.05,3.52,2.45,0,4.72-.99,6.4-2.81,1.56-1.69,3.33-4.89,2.88-10.59-.24-2.43-1.41-5.43-3.27-8.45l-.31-.5h-.16s-.02-.02-.03-.03c-.64-.84-1.29-1.72-1.94-2.8l-.19-.25c-.07-.11-.23-.37-.53-.54l-1-1.19-.31-.27c-.34-.52-1.37-1.45-2.91-2.83-.54-.48-1.01-.9-1.24-1.13-.07-.06-.13-.12-.18-.19l-.16-.77h-.68c-8.22-6.55-18.57-10.01-29.95-10.01-15,0-27.94,5.08-37.41,14.69-9.62,9.76-14.8,23.73-14.58,39.32.46,39.14,27.39,53.09,52.44,53.09,18.78,0,35.96-8.35,42.72-20.76.92-1.58.99-3.29.18-4.71-.71-1.23-1.97-1.99-3.31-1.99Z"/>
    <path class="cls-1" d="M701.69,867.25c0-27.91-19.19-46.65-47.77-46.65-14.24,0-26.41,4.71-35.19,13.61-9.63,9.77-14.59,23.74-14.35,40.39.46,39.14,27.5,53.09,52.66,53.09,18.27,0,34.52-8.16,41.4-20.76.92-1.58.98-3.3.17-4.71-.71-1.23-1.97-1.99-3.3-1.99-1.68,0-3.26,1.03-4.24,2.74-7.79,13.06-20.87,16-30.49,16.17-9.61.23-18.33-3.08-24.74-9.29-7.85-7.63-12.15-19.52-12.44-34.43h69.9c5.1,0,8.39-3.21,8.39-8.17ZM623.9,867.09c1.19-17.16,7.77-37.19,31.8-37.94,20.06,0,29.2,14.45,29.2,27.87,0,7.06-3.21,10.07-10.74,10.07h-50.26Z"/>
    <path class="cls-1" d="M226.39,693.75c4.52,0,10.56,1.62,13.71,9.35,2.4,6,6.38,6.89,8.54,6.89,3.79,0,7.41-2.66,8.6-6.33.67-2.07,1.46-7.44-5.77-12.71-6.08-4.35-13.22-6.65-20.63-6.65-12.6,0-24.42,6.33-31.65,16.75v-14.14c0-.96-.43-1.76-1.19-2.19-.86-.5-2.08-.43-2.99.13-7.48,3.52-16.49,6.22-24.27,8.38-2.5.63-3.22,2.26-3.07,3.48.18,1.48,1.51,2.59,3.1,2.59h.57c4.66.03,7.53,0,8.81,1.19,1.32,1.23,1.58,4.3,1.58,9.55v64.06c0,8.68-3.41,9.02-9.06,9.57-1.3.13-2.68.26-4.13.52-1.68.37-2.43,2.01-2.28,3.37.16,1.49,1.26,2.49,2.73,2.49h42.93c1.47,0,2.57-1,2.73-2.49.15-1.36-.6-3-2.33-3.37-1.41-.25-2.78-.39-4.08-.52-5.65-.56-9.06-.89-9.06-9.57v-52.28c0-16.08,14.36-28.09,27.2-28.09Z"/>
    <path class="cls-1" d="M316.03,684.31c-16.19,0-29.79,5.85-39.34,16.91-8.45,9.79-13.1,22.96-13.1,37.08,0,37.1,27.18,53.99,52.44,53.99,16.24,0,29.88-5.85,39.46-16.91,8.48-9.79,13.14-22.96,13.14-37.09,0-37.1-27.27-53.99-52.6-53.99ZM316.03,785.74c-23.18,0-33.73-24.64-33.73-47.53,0-12.49,3.03-24.11,8.52-32.72,6.11-9.58,14.83-14.64,25.21-14.64s19.1,5.06,25.21,14.64c5.5,8.6,8.52,20.23,8.52,32.72,0,22.89-10.55,47.53-33.73,47.53Z"/>
    <path class="cls-1" d="M389.7,701.21c-8.45,9.79-13.1,22.96-13.1,37.08,0,37.1,27.18,53.99,52.44,53.99,16.24,0,29.88-5.85,39.46-16.91,8.48-9.79,13.14-22.96,13.14-37.09,0-37.1-27.27-53.99-52.6-53.99-16.19,0-29.79,5.85-39.34,16.91ZM454.25,705.5c5.49,8.6,8.52,20.22,8.52,32.72,0,22.89-10.56,47.53-33.73,47.53s-33.73-24.64-33.73-47.53c0-12.49,3.02-24.11,8.52-32.72,6.11-9.58,14.83-14.64,25.21-14.64s19.1,5.06,25.21,14.64Z"/>
    <path class="cls-1" d="M543.75,635.15h-1.05c-.28,0-.86,0-1.3-.19-.94-.23-1.9-.44-2.97-.46-11.17-1.96-22.25.58-29.63,6.77-6.6,5.54-10.09,13.79-10.09,23.85v20.53h-11.63c-2.66,0-4.06,1.76-4.06,3.5s1.39,3.5,4.06,3.5h11.63v81.7c0,8.66-3.43,9.01-9.11,9.57-1.3.13-2.66.27-3.95.51-1.56.15-2.67,1.49-2.59,3.11.08,1.63,1.28,2.77,2.91,2.77h42.71c1.77,0,2.76-1.43,2.83-2.83.08-1.61-.98-2.89-2.43-3.03-1.41-.25-2.78-.39-4.08-.52-5.65-.56-9.06-.89-9.06-9.58v-81.7h24.75c2.55,0,3.89-1.76,3.89-3.5s-1.34-3.5-3.89-3.5h-24.75v-20.53c0-13.91,6.81-23.91,16.49-24.31,8.89.26,11.76,7.93,12.58,11.21,1.34,5.35,5.46,7.25,8.58,7.25,2.74,0,5.22-1.43,6.46-3.72.87-1.61,1.85-5.04-1.35-9.92-2.67-4-8.74-8.04-14.95-9.99v-.49Z"/>
    <path class="cls-1" d="M589.12,735.67c-21.98,7.58-30.55,26.45-27.5,42.1,4.49,23.09,28.3,32.58,53.4,32.57,4.44,0,8.93-.29,13.36-.87,44.76-5.92,60.03-30.22,59.51-49.22-.46-16.73-12.1-29.57-28.72-32.2,15.71-9.14,31.35-20.73,30.28-40.48-.4-5.81-2.7-8.82-4.55-10.32-2.02-1.63-4.5-2.34-7.04-1.97-2.77.4-5.14,2.05-6.33,4.43-1.43,2.84-1.1,6.44.92,10.14,8.24,15-7.73,24.74-24.65,35.05-9.05,5.52-18.4,11.22-24,17.9-.37.31-.65.74-.91,1.15-.03.05-.06.1-.09.14l-.44.36c-6.06,7.7-8.15,20.74-4.4,27.36,1.44,2.54,4.39,5.41,10.18,4.65,2.3-.33,4.26-1.54,5.52-3.42,1.33-1.97,1.81-4.53,1.4-7.41-.48-3.36-2.9-5.91-5.04-8.16-3.43-3.6-5.23-5.82-2.63-9.43,2.38-2.39,5.16-4.51,8.5-6.49l.47-.32c3.61-2.5,7.49-4.11,11.22-4.65,5.53-.8,10.52.49,14.41,3.72,5.15,4.29,8.07,11.87,8.45,21.93.98,22.31-21.15,35.33-43.53,38.34-17.83,2.38-32.2-2.28-40.47-13.08-6.99-9.13-8.62-21.96-4.15-32.68,4.28-10.28,13.4-17.02,25.02-18.51,1.36-.2,2.44-1,2.9-2.16.37-.93.25-1.92-.32-2.64-.4-.51-1.35-1.3-3.4-1.02-15.66,2.07-27.04-7.79-29.62-25.69-2.92-20.31,11.76-31.86,26.63-34.01,8.35-1.2,15.92.6,20.25,4.82,3.22,3.14,4.54,7.38,3.93,12.62-.42,3.78.46,6.93,2.46,8.87,1.52,1.47,3.61,2.14,5.73,1.84,3.68-.53,7.22-4.05,6.29-10.51-2.86-19.88-24.15-26.33-42.69-23.91-27.66,3.62-39.54,22.17-39.04,38.95.41,13.84,9.48,28.41,28.7,32.19Z"/>
  </g>
  <g>
    <path class="cls-1" d="M313.28,418.8c23.51-6.29,52.46-17.61,68.58-36.81.14-.03,6.9-8.77,10.8-20.34,5.69-16.88-4.16-26.35-12.92-27.82-9.64-1.61-19.86,5.69-16.72,21.98,4.24,21.51-6.57,30.6-27,41.5l-98.46,44.87c-19.68,11.32-21.54,60.55,7.32,60.99,7.99,0,14.66-6.22,14.66-17.32,0-15.1-22.65-24.87-9.33-38.63,5.33-4,11.55-7.55,19.1-10.66.44-.44.89-.44.89-.44,8-4,16.43-6.22,24.43-6.22,23.53,0,44.41,17.32,39.97,59.51-4.44,44.85-51.96,65.72-99.03,65.28-118.57-1.33-105.25-138.11-20.43-136.77,5.77,0,7.55-7.55,0-7.55-34.19-.44-53.29-26.2-53.29-61.28,0-43.07,34.19-61.73,64.39-61.73,27.98,0,52.4,15.54,44.85,43.96-3.55,13.77,3.55,20.87,11.1,20.87,6.66,0,13.32-5.33,13.32-16.87,0-26.35-18.15-42.66-40.19-50.84h0c-32.7-12.44-63.97-3.3-63.97-3.3l.11.02c-75.73,18.79-78.82,116.46.14,133.61l-3.55-.45c-101.69,11.55-107.02,151.87,47.96,154.09,154.54,1.78,158.98-131.45,77.27-149.65Z"/>
    <path class="cls-1" d="M500.02,404.14c18.21-16,28.08-39.31,28.08-68.96,0-59.94-50.22-90.78-105.94-90.78h-131.55c-3.47,0-3.82,5.24-.35,5.94,11.8,2.1,19.82-1.05,19.82,17.46l.13,44.72h0l.11,75.09,25.69-9.36v-110.59c0-3.05.28-5.52.8-7.52,2.25-6.24,7.88-7.7,14.56-7.7l46.01-1.6c100.37.27,97.35,33.94,97.35,84.78,0,26.63-7.19,48.88-23.92,63.35-21.94-2.14-59.13-5.1-86.07-3.75l-12.36,12.26s42.51.3,74.63,5.89c7.9,1.79,17.3,4.3,27.16,7.77,0,0,0,0,0,0h0c37.97,13.37,82.62,40.92,73.57,95.75-9.39,56.86-38.97,67.54-156.12,68v.02h-6.47c-24.66-1.19-54.84-1.82-70.2,19.17-8.12,11.42-4.6,20.48,1.38,24.09,6.58,3.97,16.17,1.6,18.6-11.22,3.9-21.05,32.73-22.05,56.7-22.31v.04l80.02.37c60.44,0,114.92-32.71,114.92-96.29,0-55.6-41.1-84.46-86.57-94.61Z"/>
    <path class="cls-2" d="M424.51,425.55c-2.63-.2-2.9-.12,0,0h0Z"/>
  </g>
  <path class="cls-1" d="M356.5,0h-175.13c-3.92,0-4.32,6.11-.39,6.93,13.34,2.04,24.72-1.22,24.72,20.37v240.37c7.19-.81,16.55-1.14,26.94.26,0-6.82,1.71-222.24,2.09-241.44,0-11.03,4.94-15.22,11.7-16.56l79.46.31c63.56,0,103.19,27.92,103.19,87.48,0,46.65-18.98,80.95-67.93,86.36-20.12,1.42-40.69.08-45.61-18.23-3.59-13.18-13-14.63-18.91-9.75-5.37,4.43-7.84,14.3,1.06,25.4,5.7,6.91,20.54,13.42,20.52,13.49.12-.05.25-.07.37-.11,89.58,14.38,143.85-22.97,143.85-97.62C462.44,33.04,412.21,0,356.5,0Z"/>
</svg>